<svg id="svg" version="1.1" xmlns="http://www.w3.org/2000/svg" xmlns:xlink="http://www.w3.org/1999/xlink" width="400" height="400" viewBox="0, 0, 400,400"><g id="svgg"><path id="path0" d="M182.385 0.148 C 182.272 0.261,180.654 0.387,178.790 0.427 C 176.925 0.466,175.210 0.650,174.978 0.834 C 174.746 1.018,173.345 1.202,171.865 1.243 C 170.386 1.283,169.080 1.470,168.964 1.658 C 168.848 1.846,167.788 2.000,166.610 2.000 C 165.431 2.000,164.407 2.165,164.333 2.367 C 164.260 2.569,163.300 2.783,162.200 2.843 C 161.100 2.903,160.105 3.090,159.988 3.258 C 159.871 3.426,159.106 3.608,158.288 3.663 C 157.470 3.718,156.800 3.907,156.800 4.082 C 156.800 4.257,156.001 4.400,155.024 4.400 C 154.047 4.400,153.136 4.580,153.000 4.800 C 152.864 5.020,152.349 5.200,151.856 5.200 C 151.363 5.200,150.718 5.425,150.421 5.700 C 149.990 6.100,149.939 6.100,150.165 5.700 C 150.320 5.425,150.257 5.200,150.024 5.200 C 149.791 5.200,149.600 5.351,149.600 5.536 C 149.600 5.721,148.565 6.097,147.300 6.371 C 146.035 6.646,144.687 7.035,144.305 7.235 C 143.923 7.436,143.169 7.600,142.629 7.600 C 142.089 7.600,141.536 7.780,141.400 8.000 C 141.264 8.220,140.653 8.400,140.043 8.400 C 139.433 8.400,138.809 8.525,138.656 8.677 C 138.504 8.829,137.983 9.014,137.498 9.088 C 137.014 9.162,136.456 9.384,136.260 9.580 C 136.063 9.777,135.654 9.842,135.351 9.726 C 135.048 9.610,134.800 9.724,134.800 9.981 C 134.800 10.237,134.620 10.336,134.400 10.200 C 134.180 10.064,134.000 10.127,134.000 10.339 C 134.000 10.551,133.612 10.624,133.137 10.500 C 132.551 10.346,132.366 10.421,132.558 10.732 C 132.742 11.030,132.623 11.107,132.221 10.953 C 131.879 10.822,131.600 10.897,131.600 11.120 C 131.600 11.343,131.240 11.431,130.800 11.316 C 130.353 11.199,130.000 11.304,130.000 11.553 C 130.000 11.799,129.657 12.000,129.238 12.000 C 128.550 12.000,127.070 12.631,123.900 14.275 C 123.295 14.588,122.800 14.739,122.800 14.609 C 122.800 14.478,122.395 14.596,121.900 14.871 C 121.405 15.145,120.836 15.322,120.637 15.264 C 120.437 15.206,120.167 15.302,120.037 15.479 C 119.653 16.000,118.059 16.800,117.405 16.800 C 117.072 16.800,116.800 16.980,116.800 17.200 C 116.800 17.420,116.429 17.600,115.976 17.600 C 115.523 17.600,115.264 17.780,115.400 18.000 C 115.538 18.224,115.231 18.400,114.703 18.400 C 113.631 18.400,111.608 19.248,111.603 19.700 C 111.601 19.865,111.240 20.000,110.800 20.000 C 110.360 20.000,110.000 20.180,110.000 20.400 C 110.000 20.620,109.640 20.800,109.200 20.800 C 108.760 20.800,108.400 20.980,108.400 21.200 C 108.400 21.420,108.040 21.600,107.600 21.600 C 107.160 21.600,106.800 21.737,106.800 21.905 C 106.800 22.212,105.928 22.744,103.900 23.672 C 103.295 23.949,102.800 24.316,102.800 24.488 C 102.800 24.659,102.519 24.800,102.176 24.800 C 101.833 24.800,101.636 24.935,101.738 25.100 C 101.840 25.265,101.467 25.427,100.909 25.461 C 100.352 25.494,99.784 25.689,99.648 25.893 C 99.511 26.097,98.372 26.762,97.116 27.371 C 95.860 27.980,94.387 28.891,93.841 29.397 C 93.296 29.902,92.748 30.215,92.625 30.091 C 92.501 29.968,92.400 30.077,92.400 30.333 C 92.400 30.590,92.130 30.800,91.800 30.800 C 91.470 30.800,91.200 30.980,91.200 31.200 C 91.200 31.420,90.880 31.600,90.488 31.600 C 90.097 31.600,89.517 31.960,89.200 32.400 C 88.883 32.840,88.343 33.200,88.000 33.200 C 87.657 33.200,87.117 33.560,86.800 34.000 C 86.483 34.440,86.002 34.800,85.732 34.800 C 85.461 34.800,85.056 35.115,84.832 35.500 C 84.608 35.885,84.419 36.058,84.412 35.884 C 84.405 35.711,84.006 35.936,83.525 36.384 C 83.043 36.833,82.456 37.200,82.220 37.200 C 81.983 37.200,81.454 37.647,81.045 38.192 C 80.635 38.738,80.162 39.100,79.995 38.997 C 79.828 38.894,78.860 39.605,77.845 40.577 C 76.830 41.550,75.994 42.223,75.987 42.073 C 75.979 41.923,75.642 42.197,75.236 42.683 C 74.831 43.169,74.387 43.454,74.250 43.316 C 74.112 43.179,74.000 43.248,74.000 43.469 C 74.000 43.690,73.540 44.081,72.977 44.337 C 72.367 44.616,72.069 44.989,72.239 45.264 C 72.408 45.536,72.348 45.615,72.093 45.457 C 71.856 45.311,70.703 46.095,69.531 47.200 C 68.359 48.305,67.115 49.477,66.766 49.805 C 66.418 50.132,65.953 50.400,65.734 50.400 C 65.515 50.400,65.094 50.850,64.800 51.399 C 64.506 51.949,64.188 52.321,64.093 52.226 C 63.998 52.131,62.678 53.346,61.161 54.927 C 57.824 58.402,58.402 57.824,54.927 61.161 C 53.346 62.678,52.131 63.998,52.226 64.093 C 52.321 64.188,51.949 64.506,51.399 64.800 C 50.850 65.094,50.400 65.515,50.400 65.734 C 50.400 66.141,50.277 66.290,47.812 68.887 C 47.035 69.704,46.400 70.570,46.400 70.810 C 46.400 71.051,46.220 71.136,46.000 71.000 C 45.633 70.773,45.422 71.320,45.563 72.130 C 45.594 72.311,45.436 72.346,45.212 72.207 C 44.987 72.068,44.594 72.415,44.337 72.977 C 44.081 73.540,43.720 74.000,43.536 74.000 C 43.351 74.000,43.200 74.180,43.200 74.400 C 43.200 74.620,42.833 75.167,42.385 75.615 C 41.937 76.063,41.695 76.630,41.847 76.876 C 41.999 77.122,41.961 77.230,41.762 77.115 C 41.563 77.000,40.989 77.332,40.486 77.853 C 39.983 78.374,39.713 78.805,39.886 78.812 C 40.059 78.819,39.885 79.008,39.500 79.232 C 39.115 79.456,38.800 80.021,38.800 80.487 C 38.800 80.952,38.689 81.222,38.552 81.086 C 38.248 80.781,37.200 81.780,37.200 82.375 C 37.200 82.613,36.660 83.372,36.000 84.063 C 35.340 84.754,34.800 85.522,34.800 85.771 C 34.800 86.020,34.440 86.483,34.000 86.800 C 33.560 87.117,33.200 87.657,33.200 88.000 C 33.200 88.343,32.840 88.883,32.400 89.200 C 31.960 89.517,31.600 90.097,31.600 90.488 C 31.600 90.880,31.420 91.200,31.200 91.200 C 30.980 91.200,30.800 91.455,30.800 91.767 C 30.800 92.078,30.655 92.393,30.477 92.467 C 30.060 92.639,27.951 95.792,27.044 97.600 C 26.658 98.370,26.087 99.450,25.775 100.000 C 25.463 100.550,25.294 101.234,25.399 101.521 C 25.505 101.807,25.413 101.932,25.195 101.797 C 24.978 101.663,24.800 101.818,24.800 102.143 C 24.800 102.468,24.665 102.793,24.500 102.867 C 24.124 103.034,22.825 105.164,22.529 106.100 C 22.407 106.485,22.148 106.800,21.953 106.800 C 21.759 106.800,21.600 107.160,21.600 107.600 C 21.600 108.040,21.420 108.400,21.200 108.400 C 20.980 108.400,20.800 108.745,20.800 109.167 C 20.800 109.588,20.665 109.993,20.500 110.067 C 20.335 110.140,19.777 111.100,19.260 112.200 C 18.742 113.300,18.157 114.513,17.960 114.895 C 17.762 115.277,17.596 115.907,17.591 116.295 C 17.586 116.683,17.230 117.450,16.800 118.000 C 16.370 118.550,16.014 119.225,16.009 119.500 C 16.004 119.775,15.801 120.000,15.557 120.000 C 15.314 120.000,15.216 120.264,15.340 120.587 C 15.464 120.910,15.390 121.283,15.176 121.415 C 14.962 121.547,14.891 121.823,15.017 122.028 C 15.144 122.232,15.027 122.400,14.757 122.400 C 14.487 122.400,14.382 122.515,14.523 122.656 C 14.664 122.797,14.537 123.382,14.242 123.956 C 12.591 127.162,12.000 128.555,12.000 129.238 C 12.000 129.657,11.799 130.000,11.553 130.000 C 11.304 130.000,11.199 130.353,11.316 130.800 C 11.431 131.240,11.343 131.600,11.120 131.600 C 10.897 131.600,10.822 131.879,10.953 132.221 C 11.089 132.577,11.022 132.737,10.795 132.597 C 10.459 132.389,10.197 133.514,10.353 134.500 C 10.379 134.665,10.236 134.800,10.035 134.800 C 9.835 134.800,9.719 135.245,9.779 135.789 C 9.839 136.333,9.760 136.699,9.603 136.602 C 9.273 136.398,8.400 139.099,8.400 140.323 C 8.400 140.779,8.220 141.264,8.000 141.400 C 7.780 141.536,7.600 142.166,7.600 142.800 C 7.600 143.434,7.420 144.064,7.200 144.200 C 6.980 144.336,6.800 144.966,6.800 145.600 C 6.800 146.234,6.620 146.864,6.400 147.000 C 6.180 147.136,6.000 147.777,6.000 148.424 C 6.000 149.071,5.820 149.600,5.600 149.600 C 5.380 149.600,5.200 150.309,5.200 151.176 C 5.200 152.043,5.020 152.864,4.800 153.000 C 4.580 153.136,4.400 154.047,4.400 155.024 C 4.400 156.001,4.257 156.800,4.082 156.800 C 3.907 156.800,3.718 157.470,3.663 158.288 C 3.608 159.106,3.423 159.871,3.252 159.988 C 3.082 160.105,2.900 161.100,2.849 162.200 C 2.799 163.300,2.587 164.260,2.379 164.333 C 2.170 164.407,2.000 165.431,2.000 166.610 C 2.000 167.788,1.846 168.848,1.658 168.964 C 1.470 169.080,1.283 170.386,1.243 171.865 C 1.202 173.345,1.018 174.746,0.834 174.978 C -0.099 176.154,-0.099 223.846,0.834 225.022 C 1.018 225.254,1.202 226.655,1.243 228.135 C 1.283 229.614,1.470 230.920,1.658 231.036 C 1.846 231.152,2.000 232.212,2.000 233.390 C 2.000 234.569,2.170 235.593,2.379 235.667 C 2.587 235.740,2.799 236.700,2.849 237.800 C 2.900 238.900,3.082 239.895,3.252 240.012 C 3.423 240.129,3.608 240.894,3.663 241.712 C 3.718 242.530,3.907 243.200,4.082 243.200 C 4.257 243.200,4.400 243.999,4.400 244.976 C 4.400 245.953,4.580 246.864,4.800 247.000 C 5.020 247.136,5.200 247.957,5.200 248.824 C 5.200 249.691,5.380 250.400,5.600 250.400 C 5.820 250.400,6.000 250.929,6.000 251.576 C 6.000 252.223,6.180 252.864,6.400 253.000 C 6.620 253.136,6.800 253.766,6.800 254.400 C 6.800 255.034,6.980 255.664,7.200 255.800 C 7.420 255.936,7.600 256.566,7.600 257.200 C 7.600 257.834,7.780 258.464,8.000 258.600 C 8.220 258.736,8.400 259.221,8.400 259.677 C 8.400 260.901,9.273 263.602,9.603 263.398 C 9.760 263.301,9.839 263.667,9.779 264.211 C 9.719 264.755,9.835 265.200,10.035 265.200 C 10.236 265.200,10.379 265.335,10.353 265.500 C 10.197 266.486,10.459 267.611,10.795 267.403 C 11.022 267.263,11.089 267.423,10.953 267.779 C 10.822 268.121,10.897 268.400,11.120 268.400 C 11.343 268.400,11.431 268.760,11.316 269.200 C 11.199 269.647,11.304 270.000,11.553 270.000 C 11.799 270.000,12.000 270.343,12.000 270.762 C 12.000 271.445,12.591 272.838,14.242 276.044 C 14.537 276.618,14.664 277.203,14.523 277.344 C 14.382 277.485,14.487 277.600,14.757 277.600 C 15.027 277.600,15.144 277.768,15.017 277.972 C 14.891 278.177,14.962 278.453,15.176 278.585 C 15.390 278.717,15.464 279.090,15.340 279.413 C 15.216 279.736,15.314 280.000,15.557 280.000 C 15.801 280.000,16.004 280.225,16.009 280.500 C 16.014 280.775,16.370 281.450,16.800 282.000 C 17.230 282.550,17.586 283.317,17.591 283.705 C 17.596 284.093,17.762 284.723,17.960 285.105 C 18.157 285.487,18.742 286.700,19.260 287.800 C 19.777 288.900,20.335 289.860,20.500 289.933 C 20.665 290.007,20.800 290.412,20.800 290.833 C 20.800 291.255,20.980 291.600,21.200 291.600 C 21.420 291.600,21.600 291.945,21.600 292.367 C 21.600 292.788,21.735 293.193,21.900 293.267 C 22.276 293.434,23.575 295.564,23.871 296.500 C 23.993 296.885,24.252 297.200,24.447 297.200 C 24.641 297.200,24.800 297.481,24.800 297.824 C 24.800 298.167,24.978 298.337,25.195 298.203 C 25.413 298.068,25.505 298.193,25.399 298.479 C 25.294 298.766,25.463 299.450,25.775 300.000 C 26.087 300.550,26.658 301.630,27.044 302.400 C 27.951 304.208,30.060 307.361,30.477 307.533 C 30.655 307.607,30.800 307.922,30.800 308.233 C 30.800 308.545,30.980 308.800,31.200 308.800 C 31.420 308.800,31.600 309.120,31.600 309.512 C 31.600 309.903,31.960 310.483,32.400 310.800 C 32.840 311.117,33.200 311.657,33.200 312.000 C 33.200 312.343,33.560 312.883,34.000 313.200 C 34.440 313.517,34.800 313.980,34.800 314.229 C 34.800 314.478,35.340 315.246,36.000 315.937 C 36.660 316.628,37.200 317.387,37.200 317.625 C 37.200 318.220,38.248 319.219,38.552 318.914 C 38.689 318.778,38.800 319.048,38.800 319.513 C 38.800 319.979,39.115 320.544,39.500 320.768 C 39.885 320.992,40.071 321.181,39.914 321.188 C 39.757 321.195,40.027 321.617,40.514 322.126 C 41.001 322.635,41.563 322.967,41.762 322.864 C 41.961 322.761,41.999 322.878,41.847 323.124 C 41.695 323.370,41.937 323.937,42.385 324.385 C 42.833 324.833,43.200 325.380,43.200 325.600 C 43.200 325.820,43.351 326.000,43.536 326.000 C 43.720 326.000,44.081 326.460,44.337 327.023 C 44.594 327.585,44.987 327.932,45.212 327.793 C 45.436 327.654,45.594 327.689,45.563 327.870 C 45.422 328.680,45.633 329.227,46.000 329.000 C 46.220 328.864,46.400 328.949,46.400 329.190 C 46.400 329.430,47.035 330.296,47.812 331.113 C 50.277 333.710,50.400 333.859,50.400 334.266 C 50.400 334.485,50.850 334.906,51.399 335.200 C 51.949 335.494,52.321 335.812,52.226 335.907 C 52.131 336.002,53.346 337.322,54.927 338.839 C 58.402 342.176,57.824 341.598,61.161 345.073 C 62.678 346.654,63.998 347.869,64.093 347.774 C 64.188 347.679,64.506 348.051,64.800 348.601 C 65.094 349.150,65.515 349.600,65.734 349.600 C 65.953 349.600,66.418 349.868,66.766 350.195 C 67.115 350.523,68.359 351.695,69.531 352.800 C 70.703 353.905,71.856 354.689,72.093 354.543 C 72.348 354.385,72.408 354.464,72.239 354.736 C 72.069 355.011,72.367 355.384,72.977 355.663 C 73.540 355.919,74.000 356.280,74.000 356.464 C 74.000 356.649,74.180 356.800,74.400 356.800 C 74.620 356.800,75.167 357.167,75.615 357.615 C 76.063 358.063,76.630 358.305,76.876 358.153 C 77.122 358.001,77.239 358.039,77.136 358.238 C 77.033 358.437,77.365 358.999,77.874 359.486 C 78.383 359.973,78.800 360.266,78.800 360.137 C 78.800 360.008,79.042 360.103,79.337 360.348 C 79.632 360.593,80.021 360.660,80.201 360.497 C 80.381 360.333,80.399 360.425,80.241 360.700 C 80.058 361.018,80.204 361.200,80.643 361.200 C 81.023 361.200,81.222 361.311,81.086 361.448 C 80.753 361.781,81.806 362.800,82.483 362.800 C 82.780 362.800,83.276 363.150,83.585 363.579 C 83.893 364.007,84.274 364.278,84.431 364.181 C 84.588 364.084,84.819 364.274,84.946 364.602 C 85.072 364.931,85.411 365.200,85.699 365.200 C 85.987 365.200,86.483 365.560,86.800 366.000 C 87.117 366.440,87.657 366.800,88.000 366.800 C 88.343 366.800,88.883 367.160,89.200 367.600 C 89.517 368.040,90.097 368.400,90.488 368.400 C 90.880 368.400,91.200 368.580,91.200 368.800 C 91.200 369.020,91.470 369.200,91.800 369.200 C 92.130 369.200,92.400 369.410,92.400 369.667 C 92.400 369.923,92.501 370.032,92.625 369.909 C 92.748 369.785,93.296 370.098,93.841 370.603 C 94.387 371.109,95.860 372.020,97.116 372.629 C 98.372 373.238,99.511 373.903,99.648 374.107 C 99.784 374.311,100.352 374.506,100.909 374.539 C 101.467 374.573,101.840 374.735,101.738 374.900 C 101.636 375.065,101.833 375.200,102.176 375.200 C 102.519 375.200,102.800 375.341,102.800 375.512 C 102.800 375.684,103.295 376.051,103.900 376.328 C 105.928 377.256,106.800 377.788,106.800 378.095 C 106.800 378.263,107.160 378.400,107.600 378.400 C 108.040 378.400,108.400 378.580,108.400 378.800 C 108.400 379.020,108.760 379.200,109.200 379.200 C 109.640 379.200,110.000 379.380,110.000 379.600 C 110.000 379.820,110.360 380.000,110.800 380.000 C 111.240 380.000,111.601 380.135,111.603 380.300 C 111.608 380.752,113.631 381.600,114.703 381.600 C 115.231 381.600,115.538 381.776,115.400 382.000 C 115.264 382.220,115.523 382.400,115.976 382.400 C 116.429 382.400,116.800 382.580,116.800 382.800 C 116.800 383.020,117.072 383.200,117.405 383.200 C 118.059 383.200,119.653 384.000,120.037 384.521 C 120.167 384.698,120.437 384.794,120.637 384.736 C 120.836 384.678,121.405 384.855,121.900 385.129 C 122.395 385.404,122.800 385.522,122.800 385.391 C 122.800 385.261,123.295 385.412,123.900 385.725 C 127.070 387.369,128.550 388.000,129.238 388.000 C 129.657 388.000,130.000 388.201,130.000 388.447 C 130.000 388.696,130.353 388.801,130.800 388.684 C 131.240 388.569,131.600 388.657,131.600 388.880 C 131.600 389.103,131.879 389.178,132.221 389.047 C 132.623 388.893,132.742 388.970,132.558 389.268 C 132.366 389.579,132.551 389.654,133.137 389.500 C 133.612 389.376,134.000 389.449,134.000 389.661 C 134.000 389.873,134.180 389.936,134.400 389.800 C 134.620 389.664,134.800 389.763,134.800 390.019 C 134.800 390.276,135.048 390.390,135.351 390.274 C 135.654 390.158,136.063 390.223,136.260 390.420 C 136.456 390.616,137.014 390.838,137.498 390.912 C 137.983 390.986,138.504 391.171,138.656 391.323 C 138.809 391.475,139.433 391.600,140.043 391.600 C 140.653 391.600,141.264 391.780,141.400 392.000 C 141.536 392.220,142.089 392.400,142.629 392.400 C 143.169 392.400,143.923 392.564,144.305 392.765 C 144.687 392.965,146.035 393.354,147.300 393.629 C 148.565 393.903,149.600 394.279,149.600 394.464 C 149.600 394.649,149.791 394.800,150.024 394.800 C 150.257 394.800,150.320 394.575,150.165 394.300 C 149.939 393.900,149.990 393.900,150.421 394.300 C 150.718 394.575,151.363 394.800,151.856 394.800 C 152.349 394.800,152.864 394.980,153.000 395.200 C 153.136 395.420,154.047 395.600,155.024 395.600 C 156.001 395.600,156.800 395.743,156.800 395.918 C 156.800 396.093,157.470 396.282,158.288 396.337 C 159.106 396.392,159.871 396.574,159.988 396.742 C 160.105 396.910,161.100 397.097,162.200 397.157 C 163.300 397.217,164.260 397.431,164.333 397.633 C 164.407 397.835,165.431 398.000,166.610 398.000 C 167.788 398.000,168.848 398.154,168.964 398.342 C 169.080 398.530,170.386 398.717,171.865 398.757 C 173.345 398.798,174.746 398.982,174.978 399.166 C 176.154 400.099,223.846 400.099,225.022 399.166 C 225.254 398.982,226.655 398.798,228.135 398.757 C 229.614 398.717,230.920 398.530,231.036 398.342 C 231.152 398.154,232.212 398.000,233.390 398.000 C 234.569 398.000,235.593 397.835,235.667 397.633 C 235.740 397.431,236.700 397.217,237.800 397.157 C 238.900 397.097,239.895 396.910,240.012 396.742 C 240.129 396.574,240.894 396.392,241.712 396.337 C 242.530 396.282,243.200 396.093,243.200 395.918 C 243.200 395.743,243.999 395.600,244.976 395.600 C 245.953 395.600,246.864 395.420,247.000 395.200 C 247.136 394.980,247.651 394.800,248.144 394.800 C 248.637 394.800,249.282 394.575,249.579 394.300 C 250.010 393.900,250.061 393.900,249.835 394.300 C 249.680 394.575,249.743 394.800,249.976 394.800 C 250.209 394.800,250.400 394.649,250.400 394.464 C 250.400 394.279,251.435 393.903,252.700 393.629 C 253.965 393.354,255.313 392.965,255.695 392.765 C 256.077 392.564,256.831 392.400,257.371 392.400 C 257.911 392.400,258.464 392.220,258.600 392.000 C 258.736 391.780,259.347 391.600,259.957 391.600 C 260.567 391.600,261.191 391.475,261.344 391.323 C 261.496 391.171,262.017 390.986,262.502 390.912 C 262.986 390.838,263.544 390.616,263.740 390.420 C 263.937 390.223,264.346 390.158,264.649 390.274 C 264.952 390.390,265.200 390.276,265.200 390.019 C 265.200 389.763,265.380 389.664,265.600 389.800 C 265.820 389.936,266.000 389.873,266.000 389.661 C 266.000 389.449,266.388 389.376,266.863 389.500 C 267.449 389.654,267.634 389.579,267.442 389.268 C 267.258 388.970,267.377 388.893,267.779 389.047 C 268.121 389.178,268.400 389.103,268.400 388.880 C 268.400 388.657,268.760 388.569,269.200 388.684 C 269.647 388.801,270.000 388.696,270.000 388.447 C 270.000 388.201,270.343 388.000,270.762 388.000 C 271.450 388.000,272.930 387.369,276.100 385.725 C 276.705 385.412,277.200 385.261,277.200 385.391 C 277.200 385.522,277.605 385.404,278.100 385.130 C 278.595 384.856,279.225 384.678,279.500 384.734 C 279.775 384.789,280.000 384.647,280.000 384.418 C 280.000 384.188,280.225 383.996,280.500 383.991 C 280.775 383.986,281.450 383.630,282.000 383.200 C 282.550 382.770,283.283 382.414,283.629 382.409 C 283.975 382.404,285.373 381.860,286.735 381.200 C 288.098 380.540,289.390 380.000,289.606 380.000 C 289.823 380.000,290.000 379.820,290.000 379.600 C 290.000 379.380,290.360 379.200,290.800 379.200 C 291.240 379.200,291.600 379.020,291.600 378.800 C 291.600 378.580,291.960 378.400,292.400 378.400 C 292.840 378.400,293.200 378.263,293.200 378.095 C 293.200 377.788,294.072 377.256,296.100 376.328 C 296.705 376.051,297.200 375.684,297.200 375.512 C 297.200 375.341,297.481 375.200,297.824 375.200 C 298.167 375.200,298.364 375.065,298.262 374.900 C 298.160 374.735,298.533 374.573,299.091 374.539 C 299.648 374.506,300.216 374.311,300.352 374.107 C 300.489 373.903,301.628 373.238,302.884 372.629 C 304.140 372.020,305.613 371.109,306.159 370.603 C 306.704 370.098,307.252 369.785,307.375 369.909 C 307.499 370.032,307.600 369.923,307.600 369.667 C 307.600 369.410,307.870 369.200,308.200 369.200 C 308.530 369.200,308.800 369.020,308.800 368.800 C 308.800 368.580,309.120 368.400,309.512 368.400 C 309.903 368.400,310.483 368.040,310.800 367.600 C 311.117 367.160,311.657 366.800,312.000 366.800 C 312.343 366.800,312.883 366.440,313.200 366.000 C 313.517 365.560,314.013 365.200,314.301 365.200 C 314.589 365.200,314.928 364.931,315.054 364.602 C 315.181 364.274,315.412 364.084,315.569 364.181 C 315.726 364.278,316.107 364.007,316.415 363.579 C 316.724 363.150,317.220 362.800,317.517 362.800 C 318.194 362.800,319.247 361.781,318.914 361.448 C 318.778 361.311,318.977 361.200,319.357 361.200 C 319.796 361.200,319.942 361.018,319.759 360.700 C 319.601 360.425,319.619 360.333,319.799 360.497 C 319.979 360.660,320.368 360.593,320.663 360.348 C 320.958 360.103,321.200 360.008,321.200 360.137 C 321.200 360.266,321.617 359.973,322.126 359.486 C 322.635 358.999,322.967 358.437,322.864 358.238 C 322.761 358.039,322.878 358.001,323.124 358.153 C 323.370 358.305,323.937 358.063,324.385 357.615 C 324.833 357.167,325.380 356.800,325.600 356.800 C 325.820 356.800,326.000 356.649,326.000 356.464 C 326.000 356.280,326.460 355.919,327.023 355.663 C 327.633 355.384,327.931 355.011,327.761 354.736 C 327.592 354.464,327.652 354.385,327.907 354.543 C 328.144 354.689,329.297 353.905,330.469 352.800 C 331.641 351.695,332.885 350.523,333.234 350.195 C 333.582 349.868,334.047 349.600,334.266 349.600 C 334.485 349.600,334.906 349.150,335.200 348.601 C 335.494 348.051,335.812 347.679,335.907 347.774 C 336.002 347.869,337.322 346.654,338.839 345.073 C 342.176 341.598,341.598 342.176,345.073 338.839 C 346.654 337.322,347.869 336.002,347.774 335.907 C 347.679 335.812,348.051 335.494,348.601 335.200 C 349.150 334.906,349.600 334.485,349.600 334.266 C 349.600 333.859,349.723 333.710,352.188 331.113 C 352.965 330.296,353.600 329.430,353.600 329.190 C 353.600 328.949,353.780 328.864,354.000 329.000 C 354.367 329.227,354.578 328.680,354.437 327.870 C 354.406 327.689,354.556 327.649,354.770 327.781 C 354.984 327.914,355.363 327.642,355.612 327.177 C 355.861 326.712,356.455 325.883,356.932 325.334 C 357.410 324.785,357.724 324.305,357.632 324.268 C 357.539 324.231,358.302 323.325,359.327 322.255 C 360.352 321.185,361.092 320.148,360.970 319.952 C 360.849 319.755,361.031 319.486,361.375 319.354 C 361.719 319.222,362.000 318.853,362.000 318.534 C 362.000 318.214,362.180 318.064,362.400 318.200 C 362.620 318.336,362.800 318.201,362.800 317.899 C 362.800 317.598,363.167 316.957,363.616 316.475 C 364.064 315.994,364.289 315.595,364.116 315.588 C 363.942 315.581,364.115 315.392,364.500 315.168 C 364.885 314.944,365.200 314.539,365.200 314.268 C 365.200 313.998,365.560 313.517,366.000 313.200 C 366.440 312.883,366.800 312.343,366.800 312.000 C 366.800 311.657,367.160 311.117,367.600 310.800 C 368.040 310.483,368.400 309.903,368.400 309.512 C 368.400 309.120,368.580 308.800,368.800 308.800 C 369.020 308.800,369.200 308.545,369.200 308.233 C 369.200 307.922,369.345 307.607,369.523 307.533 C 369.940 307.361,372.049 304.208,372.956 302.400 C 373.342 301.630,373.913 300.550,374.225 300.000 C 374.537 299.450,374.706 298.766,374.601 298.479 C 374.495 298.193,374.587 298.068,374.805 298.203 C 375.022 298.337,375.200 298.182,375.200 297.857 C 375.200 297.532,375.335 297.207,375.500 297.133 C 375.876 296.966,377.175 294.836,377.471 293.900 C 377.593 293.515,377.852 293.200,378.047 293.200 C 378.241 293.200,378.400 292.840,378.400 292.400 C 378.400 291.960,378.580 291.600,378.800 291.600 C 379.020 291.600,379.200 291.255,379.200 290.833 C 379.200 290.412,379.335 290.007,379.500 289.933 C 379.665 289.860,380.223 288.900,380.740 287.800 C 381.258 286.700,381.843 285.487,382.040 285.105 C 382.238 284.723,382.404 284.093,382.409 283.705 C 382.414 283.317,382.770 282.550,383.200 282.000 C 383.630 281.450,383.986 280.775,383.991 280.500 C 383.996 280.225,384.199 280.000,384.443 280.000 C 384.686 280.000,384.784 279.736,384.660 279.413 C 384.536 279.090,384.610 278.717,384.824 278.585 C 385.038 278.453,385.109 278.177,384.983 277.972 C 384.856 277.768,384.973 277.600,385.243 277.600 C 385.513 277.600,385.618 277.485,385.477 277.344 C 385.336 277.203,385.463 276.618,385.758 276.044 C 387.409 272.838,388.000 271.445,388.000 270.762 C 388.000 270.343,388.201 270.000,388.447 270.000 C 388.696 270.000,388.801 269.647,388.684 269.200 C 388.569 268.760,388.657 268.400,388.880 268.400 C 389.103 268.400,389.178 268.121,389.047 267.779 C 388.911 267.423,388.978 267.263,389.205 267.403 C 389.541 267.611,389.803 266.486,389.647 265.500 C 389.621 265.335,389.764 265.200,389.965 265.200 C 390.165 265.200,390.281 264.755,390.221 264.211 C 390.161 263.667,390.240 263.301,390.397 263.398 C 390.727 263.602,391.600 260.901,391.600 259.677 C 391.600 259.221,391.780 258.736,392.000 258.600 C 392.220 258.464,392.400 257.834,392.400 257.200 C 392.400 256.566,392.580 255.936,392.800 255.800 C 393.020 255.664,393.200 255.034,393.200 254.400 C 393.200 253.766,393.380 253.136,393.600 253.000 C 393.820 252.864,394.000 252.223,394.000 251.576 C 394.000 250.929,394.180 250.400,394.400 250.400 C 394.620 250.400,394.800 249.691,394.800 248.824 C 394.800 247.957,394.980 247.136,395.200 247.000 C 395.420 246.864,395.600 245.953,395.600 244.976 C 395.600 243.999,395.743 243.200,395.918 243.200 C 396.093 243.200,396.282 242.530,396.337 241.712 C 396.392 240.894,396.577 240.129,396.748 240.012 C 396.918 239.895,397.100 238.900,397.151 237.800 C 397.201 236.700,397.413 235.740,397.621 235.667 C 397.830 235.593,398.000 234.569,398.000 233.390 C 398.000 232.212,398.154 231.152,398.342 231.036 C 398.530 230.920,398.717 229.614,398.757 228.135 C 398.798 226.655,398.982 225.254,399.166 225.022 C 400.099 223.846,400.099 176.154,399.166 174.978 C 398.982 174.746,398.798 173.345,398.757 171.865 C 398.717 170.386,398.530 169.080,398.342 168.964 C 398.154 168.848,398.000 167.788,398.000 166.610 C 398.000 165.431,397.830 164.407,397.621 164.333 C 397.413 164.260,397.201 163.300,397.151 162.200 C 397.100 161.100,396.918 160.105,396.748 159.988 C 396.577 159.871,396.392 159.106,396.337 158.288 C 396.282 157.470,396.093 156.800,395.918 156.800 C 395.743 156.800,395.600 156.001,395.600 155.024 C 395.600 154.047,395.420 153.136,395.200 153.000 C 394.980 152.864,394.800 152.043,394.800 151.176 C 394.800 150.309,394.620 149.600,394.400 149.600 C 394.180 149.600,394.000 149.071,394.000 148.424 C 394.000 147.777,393.820 147.136,393.600 147.000 C 393.380 146.864,393.200 146.234,393.200 145.600 C 393.200 144.966,393.020 144.336,392.800 144.200 C 392.580 144.064,392.400 143.434,392.400 142.800 C 392.400 142.166,392.220 141.536,392.000 141.400 C 391.780 141.264,391.600 140.779,391.600 140.323 C 391.600 139.099,390.727 136.398,390.397 136.602 C 390.240 136.699,390.161 136.333,390.221 135.789 C 390.281 135.245,390.165 134.800,389.965 134.800 C 389.764 134.800,389.621 134.665,389.647 134.500 C 389.803 133.514,389.541 132.389,389.205 132.597 C 388.978 132.737,388.911 132.577,389.047 132.221 C 389.178 131.879,389.103 131.600,388.880 131.600 C 388.657 131.600,388.569 131.240,388.684 130.800 C 388.801 130.353,388.696 130.000,388.447 130.000 C 388.201 130.000,388.000 129.657,388.000 129.238 C 388.000 128.555,387.409 127.162,385.758 123.956 C 385.463 123.382,385.336 122.797,385.477 122.656 C 385.618 122.515,385.513 122.400,385.243 122.400 C 384.973 122.400,384.856 122.232,384.983 122.028 C 385.109 121.823,385.038 121.547,384.824 121.415 C 384.610 121.283,384.536 120.910,384.660 120.587 C 384.784 120.264,384.686 120.000,384.443 120.000 C 384.199 120.000,383.996 119.775,383.991 119.500 C 383.986 119.225,383.630 118.550,383.200 118.000 C 382.770 117.450,382.414 116.683,382.409 116.295 C 382.404 115.907,382.238 115.277,382.040 114.895 C 381.843 114.513,381.258 113.300,380.740 112.200 C 380.223 111.100,379.665 110.140,379.500 110.067 C 379.335 109.993,379.200 109.588,379.200 109.167 C 379.200 108.745,379.020 108.400,378.800 108.400 C 378.580 108.400,378.400 108.055,378.400 107.633 C 378.400 107.212,378.265 106.807,378.100 106.733 C 377.724 106.566,376.425 104.436,376.129 103.500 C 376.007 103.115,375.748 102.800,375.553 102.800 C 375.359 102.800,375.200 102.519,375.200 102.176 C 375.200 101.833,375.022 101.663,374.805 101.797 C 374.587 101.932,374.495 101.807,374.601 101.521 C 374.706 101.234,374.537 100.550,374.225 100.000 C 373.913 99.450,373.342 98.370,372.956 97.600 C 372.049 95.792,369.940 92.639,369.523 92.467 C 369.345 92.393,369.200 92.078,369.200 91.767 C 369.200 91.455,369.020 91.200,368.800 91.200 C 368.580 91.200,368.400 90.880,368.400 90.488 C 368.400 90.097,368.040 89.517,367.600 89.200 C 367.160 88.883,366.800 88.343,366.800 88.000 C 366.800 87.657,366.440 87.117,366.000 86.800 C 365.560 86.483,365.200 86.002,365.200 85.732 C 365.200 85.461,364.885 85.056,364.500 84.832 C 364.115 84.608,363.942 84.419,364.116 84.412 C 364.289 84.405,364.064 84.006,363.616 83.525 C 363.167 83.043,362.800 82.402,362.800 82.101 C 362.800 81.799,362.620 81.664,362.400 81.800 C 362.180 81.936,362.000 81.786,362.000 81.466 C 362.000 81.147,361.719 80.778,361.375 80.646 C 361.031 80.514,360.849 80.245,360.970 80.048 C 361.092 79.852,360.428 78.895,359.496 77.921 C 358.563 76.948,357.748 75.982,357.685 75.776 C 357.622 75.569,357.232 75.010,356.818 74.534 C 356.404 74.058,355.861 73.288,355.612 72.823 C 355.363 72.358,354.984 72.086,354.770 72.219 C 354.556 72.351,354.406 72.311,354.437 72.130 C 354.578 71.320,354.367 70.773,354.000 71.000 C 353.780 71.136,353.600 71.051,353.600 70.810 C 353.600 70.570,352.965 69.704,352.188 68.887 C 349.723 66.290,349.600 66.141,349.600 65.734 C 349.600 65.515,349.150 65.094,348.601 64.800 C 348.051 64.506,347.679 64.188,347.774 64.093 C 347.869 63.998,346.654 62.678,345.073 61.161 C 341.598 57.824,342.176 58.402,338.839 54.927 C 337.322 53.346,336.002 52.131,335.907 52.226 C 335.812 52.321,335.494 51.949,335.200 51.399 C 334.906 50.850,334.485 50.400,334.266 50.400 C 334.047 50.400,333.582 50.132,333.234 49.805 C 332.885 49.477,331.641 48.305,330.469 47.200 C 329.297 46.095,328.144 45.311,327.907 45.457 C 327.652 45.615,327.592 45.536,327.761 45.264 C 327.931 44.989,327.633 44.616,327.023 44.337 C 326.460 44.081,326.000 43.690,326.000 43.469 C 326.000 43.248,325.888 43.179,325.750 43.316 C 325.613 43.454,325.169 43.169,324.764 42.683 C 324.358 42.197,324.021 41.923,324.013 42.073 C 324.006 42.223,323.170 41.550,322.155 40.577 C 321.140 39.605,320.172 38.894,320.005 38.997 C 319.838 39.100,319.365 38.738,318.955 38.192 C 318.546 37.647,318.017 37.200,317.780 37.200 C 317.544 37.200,316.957 36.833,316.475 36.384 C 315.994 35.936,315.595 35.711,315.588 35.884 C 315.581 36.058,315.392 35.885,315.168 35.500 C 314.944 35.115,314.539 34.800,314.268 34.800 C 313.998 34.800,313.517 34.440,313.200 34.000 C 312.883 33.560,312.343 33.200,312.000 33.200 C 311.657 33.200,311.117 32.840,310.800 32.400 C 310.483 31.960,309.903 31.600,309.512 31.600 C 309.120 31.600,308.800 31.420,308.800 31.200 C 308.800 30.980,308.530 30.800,308.200 30.800 C 307.870 30.800,307.600 30.590,307.600 30.333 C 307.600 30.077,307.499 29.968,307.375 30.091 C 307.252 30.215,306.704 29.902,306.159 29.397 C 305.613 28.891,304.140 27.980,302.884 27.371 C 301.628 26.762,300.489 26.097,300.352 25.893 C 300.216 25.689,299.648 25.494,299.091 25.461 C 298.533 25.427,298.160 25.265,298.262 25.100 C 298.364 24.935,298.167 24.800,297.824 24.800 C 297.481 24.800,297.200 24.659,297.200 24.488 C 297.200 24.316,296.705 23.949,296.100 23.672 C 294.072 22.744,293.200 22.212,293.200 21.905 C 293.200 21.737,292.840 21.600,292.400 21.600 C 291.960 21.600,291.600 21.420,291.600 21.200 C 291.600 20.980,291.240 20.800,290.800 20.800 C 290.360 20.800,290.000 20.620,290.000 20.400 C 290.000 20.180,289.823 20.000,289.606 20.000 C 289.390 20.000,288.098 19.460,286.735 18.800 C 285.373 18.140,283.975 17.596,283.629 17.591 C 283.283 17.586,282.550 17.230,282.000 16.800 C 281.450 16.370,280.775 16.014,280.500 16.009 C 280.225 16.004,280.000 15.812,280.000 15.582 C 280.000 15.353,279.775 15.211,279.500 15.266 C 279.225 15.322,278.595 15.144,278.100 14.870 C 277.605 14.596,277.200 14.478,277.200 14.609 C 277.200 14.739,276.705 14.588,276.100 14.275 C 272.930 12.631,271.450 12.000,270.762 12.000 C 270.343 12.000,270.000 11.799,270.000 11.553 C 270.000 11.304,269.647 11.199,269.200 11.316 C 268.760 11.431,268.400 11.343,268.400 11.120 C 268.400 10.897,268.121 10.822,267.779 10.953 C 267.377 11.107,267.258 11.030,267.442 10.732 C 267.634 10.421,267.449 10.346,266.863 10.500 C 266.388 10.624,266.000 10.551,266.000 10.339 C 266.000 10.127,265.820 10.064,265.600 10.200 C 265.380 10.336,265.200 10.237,265.200 9.981 C 265.200 9.724,264.952 9.610,264.649 9.726 C 264.346 9.842,263.937 9.777,263.740 9.580 C 263.544 9.384,262.986 9.162,262.502 9.088 C 262.017 9.014,261.496 8.829,261.344 8.677 C 261.191 8.525,260.567 8.400,259.957 8.400 C 259.347 8.400,258.736 8.220,258.600 8.000 C 258.464 7.780,257.911 7.600,257.371 7.600 C 256.831 7.600,256.077 7.436,255.695 7.235 C 255.313 7.035,253.965 6.646,252.700 6.371 C 251.435 6.097,250.400 5.721,250.400 5.536 C 250.400 5.351,250.209 5.200,249.976 5.200 C 249.743 5.200,249.680 5.425,249.835 5.700 C 250.061 6.100,250.010 6.100,249.579 5.700 C 249.282 5.425,248.637 5.200,248.144 5.200 C 247.651 5.200,247.136 5.020,247.000 4.800 C 246.864 4.580,245.953 4.400,244.976 4.400 C 243.999 4.400,243.200 4.257,243.200 4.082 C 243.200 3.907,242.530 3.718,241.712 3.663 C 240.894 3.608,240.129 3.426,240.012 3.258 C 239.895 3.090,238.900 2.903,237.800 2.843 C 236.700 2.783,235.740 2.569,235.667 2.367 C 235.593 2.165,234.569 2.000,233.390 2.000 C 232.212 2.000,231.152 1.846,231.036 1.658 C 230.920 1.470,229.614 1.283,228.135 1.243 C 226.655 1.202,225.254 1.020,225.022 0.839 C 224.790 0.657,224.330 0.477,224.000 0.438 C 222.387 0.247,182.564 -0.030,182.385 0.148 M309.414 127.202 C 316.886 134.683,323.060 140.984,323.134 141.205 C 323.208 141.425,323.461 141.486,323.696 141.341 C 323.949 141.184,324.007 141.265,323.838 141.538 C 323.681 141.792,323.283 142.000,322.953 142.000 C 322.623 142.000,322.464 142.180,322.600 142.400 C 322.736 142.620,322.594 142.800,322.286 142.800 C 321.536 142.800,320.319 144.178,320.699 144.597 C 320.865 144.779,320.775 144.799,320.500 144.641 C 320.187 144.461,320.000 144.595,320.000 145.000 C 320.000 145.356,319.820 145.536,319.600 145.400 C 319.380 145.264,319.186 145.478,319.168 145.876 C 319.151 146.274,319.048 146.381,318.940 146.114 C 318.805 145.783,318.453 145.910,317.833 146.514 C 317.230 147.101,317.070 147.499,317.361 147.694 C 317.630 147.874,317.526 147.990,317.091 147.994 C 316.171 148.002,311.871 152.278,312.518 152.541 C 312.783 152.649,312.674 152.751,312.276 152.768 C 311.815 152.789,311.657 152.981,311.841 153.300 C 311.999 153.575,311.981 153.667,311.801 153.503 C 311.340 153.086,310.354 153.994,310.669 154.545 C 310.811 154.795,310.790 154.876,310.622 154.724 C 310.265 154.404,308.400 156.151,308.400 156.805 C 308.400 157.048,308.265 157.165,308.100 157.066 C 307.709 156.829,306.774 157.840,307.091 158.157 C 307.224 158.291,307.003 158.400,306.600 158.400 C 306.197 158.400,305.986 158.519,306.131 158.664 C 306.276 158.810,305.991 159.130,305.498 159.376 C 305.004 159.622,304.600 160.088,304.600 160.412 C 304.600 160.735,304.330 161.008,304.000 161.018 C 303.670 161.028,303.449 161.267,303.510 161.548 C 303.570 161.829,303.435 161.945,303.210 161.806 C 302.984 161.667,302.786 161.878,302.768 162.276 C 302.751 162.674,302.649 162.783,302.541 162.518 C 302.278 161.871,298.002 166.171,297.994 167.091 C 297.990 167.526,297.874 167.630,297.694 167.361 C 297.499 167.070,297.101 167.230,296.514 167.833 C 295.910 168.453,295.783 168.805,296.114 168.940 C 296.381 169.048,296.274 169.151,295.876 169.168 C 295.478 169.186,295.267 169.384,295.406 169.610 C 295.545 169.835,295.421 169.970,295.130 169.910 C 294.838 169.849,294.645 170.025,294.700 170.300 C 294.755 170.575,294.575 170.755,294.300 170.700 C 294.025 170.645,293.849 170.838,293.910 171.130 C 293.971 171.425,293.827 171.540,293.583 171.389 C 293.336 171.237,293.051 171.483,292.928 171.955 C 292.807 172.415,292.550 172.692,292.355 172.572 C 292.160 172.451,292.000 172.644,292.000 173.000 C 292.000 173.356,291.820 173.536,291.600 173.400 C 291.380 173.264,291.200 173.439,291.200 173.789 C 291.200 174.139,290.904 174.539,290.543 174.677 C 289.438 175.101,286.820 177.710,287.080 178.129 C 287.216 178.350,287.120 178.398,286.862 178.238 C 286.585 178.067,286.400 178.213,286.400 178.600 C 286.400 178.956,286.238 179.147,286.041 179.025 C 285.843 178.903,285.121 179.327,284.436 179.967 C 283.608 180.740,283.359 181.198,283.695 181.333 C 283.992 181.453,283.900 181.550,283.471 181.568 C 282.527 181.609,281.602 182.547,281.594 183.471 C 281.590 183.914,281.473 184.028,281.294 183.761 C 281.099 183.470,280.701 183.630,280.114 184.233 C 279.510 184.853,279.383 185.205,279.714 185.340 C 279.981 185.448,279.874 185.551,279.476 185.568 C 279.078 185.586,278.864 185.780,279.000 186.000 C 279.136 186.220,278.956 186.400,278.600 186.400 C 278.195 186.400,278.061 186.587,278.241 186.900 C 278.399 187.175,278.379 187.265,278.197 187.099 C 277.765 186.708,276.400 187.946,276.400 188.729 C 276.400 189.061,276.289 189.222,276.152 189.086 C 275.848 188.781,275.048 189.555,274.690 190.500 C 274.544 190.885,274.139 191.200,273.789 191.200 C 273.439 191.200,273.264 191.380,273.400 191.600 C 273.536 191.820,273.356 192.000,273.000 192.000 C 272.644 192.000,272.464 192.180,272.600 192.400 C 272.736 192.620,272.594 192.800,272.286 192.800 C 271.536 192.800,270.319 194.178,270.699 194.597 C 270.865 194.779,270.775 194.799,270.500 194.641 C 270.187 194.461,270.000 194.595,270.000 195.000 C 270.000 195.356,269.820 195.536,269.600 195.400 C 269.380 195.264,269.186 195.478,269.168 195.876 C 269.151 196.274,269.048 196.381,268.940 196.114 C 268.805 195.783,268.453 195.910,267.833 196.514 C 267.230 197.101,267.070 197.499,267.361 197.694 C 267.630 197.874,267.526 197.990,267.091 197.994 C 266.171 198.002,261.871 202.278,262.518 202.541 C 262.783 202.649,262.674 202.751,262.276 202.768 C 261.815 202.789,261.657 202.981,261.841 203.300 C 261.999 203.575,261.981 203.667,261.801 203.503 C 261.340 203.086,260.354 203.994,260.669 204.545 C 260.811 204.795,260.790 204.876,260.622 204.724 C 260.265 204.404,258.400 206.151,258.400 206.805 C 258.400 207.048,258.265 207.165,258.100 207.066 C 257.709 206.829,256.774 207.840,257.091 208.157 C 257.224 208.291,257.003 208.400,256.600 208.400 C 256.197 208.400,255.986 208.519,256.131 208.664 C 256.276 208.810,255.991 209.130,255.498 209.376 C 255.004 209.622,254.600 210.088,254.600 210.412 C 254.600 210.735,254.330 211.008,254.000 211.018 C 253.670 211.028,253.449 211.267,253.510 211.548 C 253.570 211.829,253.435 211.945,253.210 211.806 C 252.984 211.667,252.786 211.878,252.768 212.276 C 252.751 212.674,252.649 212.783,252.541 212.518 C 252.283 211.882,248.010 216.154,247.968 217.091 C 247.951 217.486,247.849 217.585,247.740 217.314 C 247.605 216.983,247.253 217.110,246.633 217.714 C 246.030 218.301,245.870 218.699,246.161 218.894 C 246.428 219.073,246.317 219.190,245.876 219.194 C 245.478 219.197,245.267 219.384,245.406 219.610 C 245.545 219.835,245.421 219.970,245.130 219.910 C 244.838 219.849,244.645 220.025,244.700 220.300 C 244.755 220.575,244.575 220.755,244.300 220.700 C 244.025 220.645,243.849 220.838,243.910 221.130 C 243.971 221.425,243.827 221.540,243.583 221.389 C 243.336 221.237,243.051 221.483,242.928 221.955 C 242.807 222.415,242.550 222.692,242.355 222.572 C 242.160 222.451,242.000 222.644,242.000 223.000 C 242.000 223.356,241.820 223.536,241.600 223.400 C 241.380 223.264,241.200 223.439,241.200 223.789 C 241.200 224.139,240.904 224.539,240.543 224.677 C 239.438 225.101,236.820 227.710,237.080 228.129 C 237.216 228.350,237.120 228.398,236.862 228.238 C 236.585 228.067,236.400 228.213,236.400 228.600 C 236.400 228.956,236.238 229.147,236.041 229.025 C 235.843 228.903,235.121 229.327,234.436 229.967 C 233.608 230.740,233.359 231.198,233.695 231.333 C 233.992 231.453,233.900 231.550,233.471 231.568 C 232.537 231.609,231.609 232.537,231.568 233.471 C 231.551 233.872,231.448 233.981,231.340 233.714 C 231.205 233.383,230.853 233.510,230.233 234.114 C 229.630 234.701,229.470 235.099,229.761 235.294 C 230.028 235.473,229.917 235.590,229.476 235.594 C 229.078 235.597,228.864 235.780,229.000 236.000 C 229.136 236.220,228.956 236.400,228.600 236.400 C 228.195 236.400,228.061 236.587,228.241 236.900 C 228.399 237.175,228.379 237.265,228.197 237.099 C 227.765 236.708,226.400 237.946,226.400 238.729 C 226.400 239.061,226.289 239.222,226.152 239.086 C 225.848 238.781,225.048 239.555,224.690 240.500 C 224.544 240.885,224.139 241.200,223.789 241.200 C 223.439 241.200,223.264 241.380,223.400 241.600 C 223.536 241.820,223.356 242.000,223.000 242.000 C 222.644 242.000,222.464 242.180,222.600 242.400 C 222.736 242.620,222.594 242.800,222.286 242.800 C 221.536 242.800,220.319 244.178,220.699 244.597 C 220.865 244.779,220.775 244.799,220.500 244.641 C 220.187 244.461,220.000 244.595,220.000 245.000 C 220.000 245.356,219.820 245.536,219.600 245.400 C 219.380 245.264,219.186 245.478,219.168 245.876 C 219.151 246.274,219.048 246.381,218.940 246.114 C 218.805 245.783,218.453 245.910,217.833 246.514 C 217.230 247.101,217.070 247.499,217.361 247.694 C 217.630 247.874,217.526 247.990,217.091 247.994 C 216.171 248.002,211.871 252.278,212.518 252.541 C 212.783 252.649,212.674 252.751,212.276 252.768 C 211.835 252.788,211.664 252.980,211.838 253.262 C 212.004 253.530,211.949 253.616,211.707 253.466 C 211.249 253.183,210.288 254.115,210.603 254.537 C 210.712 254.682,210.691 254.721,210.558 254.624 C 210.220 254.380,208.400 256.256,208.400 256.848 C 208.400 257.115,208.291 257.224,208.157 257.091 C 207.840 256.774,206.829 257.709,207.066 258.100 C 207.165 258.265,206.937 258.400,206.557 258.400 C 206.177 258.400,205.986 258.519,206.131 258.664 C 206.276 258.810,205.991 259.130,205.498 259.376 C 205.004 259.622,204.600 260.088,204.600 260.412 C 204.600 260.735,204.330 261.008,204.000 261.018 C 203.670 261.028,203.449 261.267,203.510 261.548 C 203.570 261.829,203.435 261.945,203.210 261.806 C 202.984 261.667,202.786 261.878,202.768 262.276 C 202.751 262.674,202.649 262.783,202.541 262.518 C 202.278 261.871,198.002 266.171,197.994 267.091 C 197.990 267.526,197.874 267.630,197.694 267.361 C 197.499 267.070,197.101 267.230,196.514 267.833 C 195.910 268.453,195.783 268.805,196.114 268.940 C 196.381 269.048,196.274 269.151,195.876 269.168 C 195.478 269.186,195.267 269.384,195.406 269.610 C 195.545 269.835,195.421 269.970,195.130 269.910 C 194.838 269.849,194.645 270.025,194.700 270.300 C 194.755 270.575,194.575 270.755,194.300 270.700 C 194.025 270.645,193.849 270.838,193.910 271.130 C 193.971 271.425,193.827 271.540,193.583 271.389 C 193.336 271.237,193.051 271.483,192.928 271.955 C 192.807 272.415,192.550 272.692,192.355 272.572 C 192.160 272.451,192.000 272.644,192.000 273.000 C 192.000 273.356,191.820 273.536,191.600 273.400 C 191.380 273.264,191.200 273.439,191.200 273.789 C 191.200 274.139,190.904 274.539,190.543 274.677 C 189.438 275.101,186.820 277.710,187.080 278.129 C 187.216 278.350,187.120 278.398,186.862 278.238 C 186.585 278.067,186.400 278.213,186.400 278.600 C 186.400 278.956,186.238 279.147,186.041 279.025 C 185.843 278.903,185.121 279.327,184.436 279.967 C 183.608 280.740,183.359 281.198,183.695 281.333 C 183.992 281.453,183.900 281.550,183.471 281.568 C 182.527 281.609,181.602 282.547,181.594 283.471 C 181.590 283.914,181.473 284.028,181.294 283.761 C 181.099 283.470,180.701 283.630,180.114 284.233 C 179.510 284.853,179.383 285.205,179.714 285.340 C 179.981 285.448,179.874 285.551,179.476 285.568 C 179.078 285.586,178.864 285.780,179.000 286.000 C 179.136 286.220,178.956 286.400,178.600 286.400 C 178.195 286.400,178.061 286.587,178.241 286.900 C 178.399 287.175,178.379 287.265,178.197 287.099 C 177.765 286.708,176.400 287.946,176.400 288.729 C 176.400 289.061,176.289 289.222,176.152 289.086 C 175.848 288.781,175.048 289.555,174.690 290.500 C 174.544 290.885,174.139 291.200,173.789 291.200 C 173.439 291.200,173.264 291.380,173.400 291.600 C 173.536 291.820,173.356 292.000,173.000 292.000 C 172.644 292.000,172.464 292.180,172.600 292.400 C 172.736 292.620,172.594 292.800,172.286 292.800 C 171.536 292.800,170.319 294.178,170.699 294.597 C 170.865 294.779,170.775 294.799,170.500 294.641 C 170.187 294.461,170.000 294.595,170.000 295.000 C 170.000 295.356,169.820 295.536,169.600 295.400 C 169.380 295.264,169.197 295.478,169.194 295.876 C 169.190 296.317,169.073 296.428,168.894 296.161 C 168.699 295.870,168.301 296.030,167.714 296.633 C 167.110 297.253,166.983 297.605,167.314 297.740 C 167.581 297.848,167.471 297.951,167.069 297.968 C 166.666 297.986,165.635 298.731,164.777 299.624 L 163.216 301.249 155.847 293.852 C 151.794 289.784,148.370 286.563,148.239 286.695 C 148.107 286.826,148.000 286.633,148.000 286.267 C 148.000 285.900,147.700 285.600,147.333 285.600 C 146.967 285.600,146.769 285.498,146.894 285.373 C 147.192 285.075,131.491 269.285,131.100 269.490 C 130.935 269.577,130.800 269.460,130.800 269.231 C 130.800 268.662,114.912 252.822,114.627 253.106 C 114.502 253.231,114.400 253.125,114.400 252.871 C 114.400 252.261,98.540 236.393,98.235 236.698 C 98.106 236.827,98.000 236.633,98.000 236.267 C 98.000 235.900,97.700 235.600,97.333 235.600 C 96.967 235.600,96.769 235.498,96.894 235.373 C 97.192 235.075,81.491 219.285,81.100 219.490 C 80.935 219.577,80.800 219.445,80.800 219.198 C 80.800 218.950,79.900 217.871,78.800 216.800 C 76.089 214.160,75.719 214.857,84.045 206.929 C 86.817 204.290,87.990 203.125,89.754 201.259 C 92.607 198.241,99.417 191.458,101.059 190.000 C 101.925 189.230,103.008 188.111,103.465 187.512 L 104.296 186.425 110.294 192.399 C 113.593 195.685,116.197 198.470,116.080 198.587 C 115.963 198.704,116.177 198.800,116.557 198.800 C 116.937 198.800,117.165 198.935,117.066 199.100 C 116.966 199.265,117.135 199.632,117.442 199.916 C 117.749 200.199,118.000 200.339,118.000 200.225 C 118.000 200.111,119.376 201.454,121.058 203.209 C 122.739 204.964,124.389 206.400,124.724 206.400 C 125.059 206.400,125.218 206.515,125.077 206.656 C 124.937 206.797,126.769 208.867,129.149 211.256 C 131.530 213.645,133.408 215.600,133.323 215.600 C 133.238 215.600,133.401 215.851,133.684 216.158 C 133.968 216.465,134.335 216.634,134.500 216.534 C 134.665 216.435,134.800 216.663,134.800 217.043 C 134.800 217.423,134.892 217.641,135.006 217.528 C 135.119 217.415,136.984 219.089,139.151 221.249 C 141.318 223.408,143.206 225.061,143.346 224.921 C 143.486 224.781,143.602 224.922,143.605 225.233 C 143.608 225.545,144.841 227.015,146.347 228.500 C 147.852 229.985,149.016 231.200,148.935 231.200 C 148.853 231.200,149.335 231.695,150.006 232.300 C 150.678 232.905,153.808 235.965,156.964 239.100 C 160.119 242.235,162.970 244.800,163.298 244.800 C 164.163 244.800,208.479 200.452,208.149 199.917 C 207.999 199.675,208.057 199.588,208.278 199.724 C 208.838 200.071,258.498 150.482,258.152 149.922 C 257.998 149.674,258.056 149.587,258.282 149.727 C 258.505 149.865,266.858 141.804,276.844 131.813 C 286.830 121.823,295.186 113.638,295.414 113.624 C 295.642 113.611,301.942 119.721,309.414 127.202 " stroke="none" fill="#6cc45c" fill-rule="evenodd"></path><path id="path1" d="" stroke="none" fill="#70c45c" fill-rule="evenodd"></path><path id="path2" d="" stroke="none" fill="#70c45c" fill-rule="evenodd"></path><path id="path3" d="" stroke="none" fill="#70c45c" fill-rule="evenodd"></path><path id="path4" d="" stroke="none" fill="#70c45c" fill-rule="evenodd"></path></g></svg>